<?xml version="1.0" standalone="no"?>
<!DOCTYPE svg PUBLIC "-//W3C//DTD SVG 20010904//EN"
 "http://www.w3.org/TR/2001/REC-SVG-20010904/DTD/svg10.dtd">
<svg version="1.0" xmlns="http://www.w3.org/2000/svg"
 width="344.000000pt" height="344.000000pt" viewBox="0 0 344.000000 344.000000"
 preserveAspectRatio="xMidYMid meet">
<metadata>
Created by potrace 1.14, written by Peter Selinger 2001-2017
</metadata>
<g transform="translate(0.000000,344.000000) scale(0.100000,-0.100000)"
fill="#000000" stroke="none">
<path d="M877 3040 c-201 -32 -380 -123 -530 -269 -130 -125 -222 -287 -268
-466 -32 -128 -32 -323 0 -449 46 -177 117 -307 239 -437 194 -206 436 -309
725 -309 101 0 115 -2 120 -18 3 -9 62 -177 131 -372 86 -241 133 -362 149
-378 48 -47 146 -38 213 20 45 39 51 77 24 153 -25 69 -193 555 -219 632 l-18
53 46 22 c117 57 281 205 356 322 178 279 201 643 59 945 -58 123 -114 200
-217 297 -122 115 -259 191 -422 234 -92 24 -295 35 -388 20z m338 -265 c33
-8 103 -36 155 -62 80 -39 109 -61 186 -137 78 -78 98 -105 137 -186 61 -128
81 -223 75 -359 -16 -328 -238 -590 -567 -672 -70 -18 -104 -20 -195 -16 -132
6 -203 24 -311 77 -184 91 -311 243 -377 450 -19 63 -23 96 -23 205 1 119 3
137 32 218 43 123 85 189 183 287 115 116 238 179 408 210 63 12 223 4 297
-15z"/>
<path d="M1265 2565 c-8 -20 -26 -67 -39 -105 -22 -60 -23 -70 -10 -81 22 -18
36 1 68 94 l28 77 65 0 c61 0 64 1 61 23 -3 20 -9 22 -80 25 l-77 3 -16 -36z"/>
<path d="M867 2513 c-60 -20 -144 -94 -168 -148 -24 -51 -26 -161 -4 -192 43
-61 179 -29 338 79 59 40 113 103 124 146 4 17 -2 31 -23 54 -65 68 -174 93
-267 61z m168 -52 c22 -10 48 -27 57 -38 17 -18 16 -21 -7 -56 -49 -72 -221
-168 -305 -171 l-45 -1 -3 54 c-4 74 2 95 46 143 71 79 175 107 257 69z"/>
<path d="M1337 2415 c-65 -44 -82 -70 -53 -81 21 -8 156 85 156 107 0 30 -30
22 -103 -26z"/>
<path d="M1398 2353 c-48 -37 -63 -73 -31 -73 9 0 31 12 50 26 l33 25 76 -63
c75 -63 109 -78 109 -46 0 15 -167 168 -183 168 -4 0 -28 -17 -54 -37z"/>
<path d="M1157 2335 c-32 -44 -152 -134 -220 -165 -37 -16 -97 -38 -134 -49
l-68 -18 3 -73 c11 -312 177 -468 410 -387 103 36 176 81 253 157 102 100 122
188 69 306 -36 82 -225 255 -277 254 -10 0 -26 -12 -36 -25z m102 -69 c110
-82 179 -177 189 -261 12 -107 -110 -234 -292 -306 -150 -59 -253 -25 -319
106 -22 43 -45 140 -49 203 l-3 53 74 25 c40 13 86 31 102 39 28 15 28 15 55
-32 79 -138 168 -284 176 -290 6 -3 16 1 24 8 11 12 -1 39 -81 178 -52 89 -95
166 -95 171 0 4 24 26 53 48 29 23 63 53 77 67 13 14 28 25 33 25 5 0 30 -15
56 -34z"/>
<path d="M451 2078 c-22 -41 -32 -71 -28 -82 11 -27 29 -14 60 40 l29 50 89
-14 c65 -11 93 -12 101 -4 23 23 -1 39 -79 51 -43 7 -92 14 -108 17 -29 5 -32
2 -64 -58z"/>
<path d="M608 1993 c-47 -24 -68 -41 -68 -54 0 -28 30 -24 97 12 69 36 88 53
79 68 -12 18 -38 12 -108 -26z"/>
<path d="M644 1916 c-28 -13 -54 -28 -57 -33 -3 -4 3 -51 14 -103 28 -143 27
-140 49 -140 24 0 26 27 5 120 -21 95 -21 97 31 119 33 15 45 25 42 38 -5 26
-26 25 -84 -1z"/>
<path d="M2157 2112 c-158 -444 -287 -810 -287 -814 0 -5 79 -8 175 -8 l175 0
52 165 52 165 320 -2 320 -3 31 -95 c17 -52 41 -125 54 -162 l23 -68 169 0
c93 0 169 3 169 8 0 21 -53 171 -302 864 l-273 758 -195 0 -195 0 -288 -808z
m489 -210 c-120 -1 -221 0 -223 2 -4 4 184 593 209 656 9 22 25 -17 122 -315
l112 -340 -220 -3z"/>
</g>
</svg>
